<svg width="308" height="308" viewBox="0 0 308 308" fill="none" xmlns="http://www.w3.org/2000/svg">
<circle cx="154" cy="154" r="154" fill="#6E6259"/>
<path d="M85.7881 70.113C83.7581 70.113 81.7861 70.287 79.8721 70.635C78.0161 70.983 76.3341 71.534 74.8261 72.288C73.3761 73.042 72.1291 74.028 71.0851 75.246C70.0411 76.406 69.3161 77.798 68.9101 79.422C68.7361 80.234 68.6781 81.104 68.7361 82.032C68.7941 82.902 69.0261 83.801 69.4321 84.729C69.8961 85.599 70.5341 86.44 71.3461 87.252C72.1581 88.064 73.2601 88.76 74.6521 89.34C75.1161 89.514 75.4351 89.63 75.6091 89.688C75.7831 89.688 75.8411 89.746 75.7831 89.862C75.7251 89.978 75.5221 90.036 75.1741 90.036C74.8841 90.036 74.5361 89.949 74.1301 89.775C71.5201 88.847 69.6641 87.368 68.5621 85.338C67.4601 83.308 67.0541 81.133 67.3441 78.813C67.5761 77.189 68.1561 75.681 69.0841 74.289C70.0701 72.897 71.3751 71.708 72.9991 70.722C74.6231 69.678 76.5371 68.866 78.7411 68.286C81.0031 67.706 83.4971 67.416 86.2231 67.416C88.0791 67.416 90.3121 67.677 92.9221 68.199C95.5901 68.663 98.2871 69.272 101.013 70.026C102.463 70.432 103.913 70.838 105.363 71.244C106.871 71.65 108.379 72.056 109.887 72.462C111.047 71.824 112.497 71.273 114.237 70.809C115.977 70.287 117.717 70.026 119.457 70.026C120.965 70.026 122.27 70.258 123.372 70.722C124.474 71.128 124.967 71.795 124.851 72.723C124.735 73.477 124.242 74.086 123.372 74.55C122.502 74.956 121.342 75.159 119.892 75.159C118.094 75.159 116.441 75.101 114.933 74.985C113.483 74.811 111.917 74.579 110.235 74.289C109.829 74.579 109.307 75.014 108.669 75.594C108.089 76.116 107.48 76.696 106.842 77.334C106.204 77.972 105.566 78.639 104.928 79.335C104.348 79.973 103.826 80.582 103.362 81.162C102.028 82.844 100.839 84.381 99.7951 85.773C98.8091 87.107 97.7071 88.528 96.4891 90.036L95.7061 90.993C95.4161 91.341 95.0971 91.718 94.7491 92.124C94.4011 92.472 94.0531 92.878 93.7051 93.342C90.0511 97.286 86.0491 100.476 81.6991 102.912C77.4071 105.348 72.7671 106.566 67.7791 106.566C66.5611 106.566 65.3141 106.45 64.0381 106.218C62.8201 106.044 61.7181 105.725 60.7321 105.261C59.7461 104.797 58.9341 104.188 58.2961 103.434C57.7161 102.622 57.3971 101.636 57.3391 100.476C57.2811 99.374 57.6291 98.388 58.3831 97.518C59.1371 96.59 60.1811 96.126 61.5151 96.126C62.2691 96.126 62.9071 96.416 63.4291 96.996C64.0091 97.518 64.2411 98.127 64.1251 98.823C63.9511 99.635 63.5161 100.36 62.8201 100.998C62.0661 101.752 61.6891 102.419 61.6891 102.999C61.6891 103.463 61.8631 103.869 62.2111 104.217C62.6171 104.565 63.1101 104.855 63.6901 105.087C64.2701 105.319 64.8791 105.493 65.5171 105.609C66.2131 105.725 66.9091 105.783 67.6051 105.783C70.8531 105.783 73.9851 105.029 77.0011 103.521C80.0171 101.955 82.6851 99.896 85.0051 97.344C86.1071 96.184 87.0351 95.111 87.7891 94.125C88.5431 93.081 89.3261 92.008 90.1381 90.906L90.9211 90.036C91.5591 89.224 92.2261 88.383 92.9221 87.513C93.6181 86.643 94.4301 85.686 95.3581 84.642C96.4601 83.482 97.5911 82.351 98.7511 81.249C99.9691 80.089 101.129 79.045 102.231 78.117C103.391 77.131 104.464 76.29 105.45 75.594C106.436 74.84 107.277 74.26 107.973 73.854C106.987 73.622 105.856 73.361 104.58 73.071C103.362 72.781 101.999 72.462 100.491 72.114C99.6211 71.94 98.5771 71.737 97.3591 71.505C96.1991 71.273 94.9521 71.07 93.6181 70.896C92.2841 70.664 90.9501 70.49 89.6161 70.374C88.2821 70.2 87.0351 70.113 85.8751 70.113H85.7881ZM119.37 70.809C117.978 70.809 116.615 71.012 115.281 71.418C113.947 71.824 112.787 72.346 111.801 72.984C113.425 73.448 114.991 73.796 116.499 74.028C118.065 74.26 119.312 74.376 120.24 74.376C121.226 74.376 122.067 74.231 122.763 73.941C123.517 73.651 123.923 73.216 123.981 72.636C124.039 72.056 123.633 71.621 122.763 71.331C121.951 70.983 120.849 70.809 119.457 70.809H119.37ZM108.225 104.478C108.805 104.478 109.791 104.275 111.183 103.869C112.575 103.463 114.228 102.593 116.142 101.259C116.954 100.679 117.824 100.041 118.752 99.345C119.738 98.591 120.637 97.837 121.449 97.083C121.913 96.677 122.232 96.561 122.406 96.735C122.58 96.967 122.348 97.344 121.71 97.866C121.13 98.388 120.26 99.113 119.1 100.041C117.998 100.969 117.041 101.694 116.229 102.216C112.633 104.594 109.356 105.783 106.398 105.783C103.208 105.783 101.671 104.623 101.787 102.303C101.845 100.679 102.715 98.881 104.397 96.909L104.31 96.822C104.194 96.938 103.933 97.17 103.527 97.518C103.179 97.866 102.86 98.156 102.57 98.388C102.164 98.736 101.874 98.823 101.7 98.649C101.584 98.533 101.613 98.388 101.787 98.214C101.903 98.04 102.048 97.866 102.222 97.692C102.802 97.17 103.324 96.735 103.788 96.387C104.252 95.981 104.803 95.546 105.441 95.082C105.905 94.734 106.514 94.328 107.268 93.864C108.08 93.4 108.892 92.936 109.704 92.472C110.98 91.834 112.256 91.283 113.532 90.819C114.808 90.297 116.026 90.036 117.186 90.036H117.273C118.259 90.036 118.926 90.297 119.274 90.819C119.68 91.283 119.854 91.805 119.796 92.385C119.68 93.545 119.042 94.56 117.882 95.43C116.78 96.3 115.562 97.054 114.228 97.692C112.952 98.33 111.618 98.881 110.226 99.345C108.892 99.809 107.732 100.186 106.746 100.476C106.398 101.172 106.224 101.839 106.224 102.477C106.224 103.811 106.891 104.478 108.225 104.478ZM107.268 99.519C108.138 99.287 109.095 98.968 110.139 98.562C111.241 98.098 112.256 97.547 113.184 96.909C114.286 96.155 115.127 95.372 115.707 94.56C116.345 93.748 116.693 93.023 116.751 92.385C116.867 91.573 116.519 91.167 115.707 91.167C114.953 91.167 113.677 92.008 111.879 93.69C111.183 94.328 110.371 95.256 109.443 96.474C108.515 97.634 107.79 98.649 107.268 99.519ZM123.356 96.3C123.066 96.59 122.805 96.822 122.573 96.996C122.341 97.17 122.08 97.402 121.79 97.692C121.21 98.214 120.833 98.388 120.659 98.214C120.543 98.098 120.572 97.953 120.746 97.779C120.92 97.547 121.094 97.344 121.268 97.17C121.558 96.88 121.964 96.532 122.486 96.126C123.008 95.662 123.501 95.285 123.965 94.995C124.545 94.589 125.154 94.183 125.792 93.777C126.43 93.371 127.213 92.936 128.141 92.472C129.417 91.834 130.693 91.312 131.969 90.906C133.245 90.442 134.376 90.181 135.362 90.123C135.652 90.123 135.942 90.152 136.232 90.21C136.522 90.21 136.667 90.297 136.667 90.471C136.667 90.529 136.348 90.703 135.71 90.993C134.666 91.457 133.651 92.095 132.665 92.907C131.737 93.661 130.664 94.618 129.446 95.778C128.17 97.054 127.039 98.446 126.053 99.954C125.067 101.404 124.516 102.564 124.4 103.434C124.284 104.42 124.69 104.913 125.618 104.913C126.604 104.913 127.851 104.42 129.359 103.434C130.925 102.39 132.375 101.114 133.709 99.606C133.767 99.142 133.883 98.62 134.057 98.04C134.289 97.402 134.695 96.706 135.275 95.952C135.739 95.314 136.232 94.821 136.754 94.473C137.334 94.067 137.769 93.806 138.059 93.69C138.175 93.4 138.233 93.052 138.233 92.646C138.291 92.24 138.32 91.921 138.32 91.689C138.32 91.225 138.262 90.906 138.146 90.732C138.088 90.558 138.117 90.413 138.233 90.297C138.407 90.181 138.61 90.21 138.842 90.384C139.074 90.5 139.277 90.645 139.451 90.819C139.799 91.167 140.089 91.602 140.321 92.124C140.553 92.646 140.611 93.226 140.495 93.864C140.379 94.908 139.857 96.039 138.929 97.257C138.001 98.475 136.87 99.693 135.536 100.911C135.71 101.027 135.971 101.085 136.319 101.085C136.725 101.027 137.015 100.969 137.189 100.911C138.059 100.737 139.045 100.244 140.147 99.432C140.727 99.026 141.22 98.678 141.626 98.388C142.032 98.04 142.467 97.634 142.931 97.17C143.743 96.416 144.236 96.126 144.41 96.3C144.584 96.474 144.207 96.996 143.279 97.866C142.873 98.214 142.438 98.591 141.974 98.997C141.568 99.345 141.075 99.722 140.495 100.128C139.799 100.592 139.19 100.94 138.668 101.172C138.146 101.404 137.653 101.578 137.189 101.694C136.783 101.81 136.348 101.868 135.884 101.868C135.478 101.81 135.13 101.694 134.84 101.52C134.26 101.984 133.593 102.477 132.839 102.999C132.085 103.463 131.273 103.898 130.403 104.304C129.533 104.71 128.605 105.058 127.619 105.348C126.691 105.638 125.792 105.783 124.922 105.783C123.588 105.783 122.515 105.464 121.703 104.826C120.949 104.188 120.601 103.231 120.659 101.955C120.775 100.099 121.703 98.243 123.443 96.387L123.356 96.3ZM151.896 89.949C149.866 91.805 148.068 93.429 146.502 94.821C144.994 96.213 143.892 97.228 143.196 97.866C142.442 98.562 141.978 98.823 141.804 98.649C141.688 98.533 141.746 98.33 141.978 98.04C142.21 97.75 142.558 97.402 143.022 96.996C144.008 96.126 145.023 95.198 146.067 94.212C147.169 93.226 148.126 92.327 148.938 91.515C149.75 90.761 150.91 89.717 152.418 88.383C153.926 86.991 155.405 85.628 156.855 84.294C157.319 83.83 157.841 83.424 158.421 83.076C159.001 82.728 159.61 82.554 160.248 82.554C161.234 82.554 161.64 82.699 161.466 82.989C161.35 83.279 160.915 83.859 160.161 84.729C158.885 86.237 157.377 88.064 155.637 90.21C153.955 92.298 152.128 94.618 150.156 97.17C148.242 99.664 146.212 102.303 144.066 105.087C141.978 107.871 139.89 110.684 137.802 113.526C135.888 116.136 134.293 118.34 133.017 120.138C131.683 121.936 130.465 123.618 129.363 125.184C128.261 126.75 127.159 128.345 126.057 129.969C124.955 131.651 123.679 133.623 122.229 135.885C121.881 136.465 121.678 136.871 121.62 137.103C121.562 137.335 121.591 137.509 121.707 137.625C121.939 137.857 122.316 137.683 122.838 137.103C123.128 136.755 123.534 136.233 124.056 135.537C124.52 134.899 125.071 134.145 125.709 133.275C126.347 132.405 127.014 131.477 127.71 130.491C128.348 129.505 128.986 128.577 129.624 127.707C130.552 126.373 131.944 124.488 133.8 122.052C135.598 119.616 137.541 117.006 139.629 114.222C141.427 111.844 143.196 109.524 144.936 107.262C146.734 105 148.474 102.883 150.156 100.911C151.316 99.577 152.592 98.243 153.984 96.909C155.376 95.517 156.652 94.386 157.812 93.516C158.972 92.646 160.219 91.863 161.553 91.167C162.887 90.471 164.134 90.123 165.294 90.123C167.208 90.123 168.078 90.877 167.904 92.385C167.788 93.139 167.353 93.98 166.599 94.908C165.903 95.778 165.149 96.677 164.337 97.605C163.641 98.417 163.032 99.142 162.51 99.78C161.988 100.36 161.582 100.882 161.292 101.346C160.654 102.332 160.567 102.999 161.031 103.347C161.495 103.695 162.278 103.608 163.38 103.086C163.902 102.796 164.482 102.448 165.12 102.042C165.816 101.636 166.57 101.114 167.382 100.476C168.194 99.838 168.919 99.258 169.557 98.736C170.195 98.156 170.804 97.605 171.384 97.083C171.616 96.851 171.848 96.648 172.08 96.474C172.37 96.3 172.573 96.271 172.689 96.387C172.805 96.503 172.747 96.706 172.515 96.996C172.283 97.228 172.109 97.402 171.993 97.518C171.761 97.75 171.413 98.069 170.949 98.475C170.543 98.823 170.079 99.229 169.557 99.693C169.093 100.099 168.6 100.505 168.078 100.911C167.556 101.317 167.092 101.694 166.686 102.042C165.758 102.738 164.598 103.492 163.206 104.304C161.814 105.116 160.364 105.522 158.856 105.522C157.754 105.522 156.971 105.261 156.507 104.739C156.101 104.217 155.956 103.637 156.072 102.999C156.188 102.071 156.652 101.085 157.464 100.041C158.276 98.997 159.088 98.04 159.9 97.17C160.596 96.358 161.321 95.546 162.075 94.734C162.829 93.922 163.351 93.284 163.641 92.82C163.989 92.24 163.989 91.863 163.641 91.689C163.467 91.573 163.177 91.573 162.771 91.689C162.423 91.805 162.075 91.95 161.727 92.124C160.335 92.82 158.885 93.748 157.377 94.908C155.927 96.01 154.361 97.489 152.679 99.345C151.983 100.099 151.142 101.056 150.156 102.216C149.228 103.376 148.184 104.652 147.024 106.044C145.922 107.436 144.762 108.886 143.544 110.394C142.384 111.96 141.224 113.526 140.064 115.092C138.15 117.702 136.265 120.254 134.409 122.748C132.495 125.3 130.871 127.533 129.537 129.447C128.841 130.491 128.145 131.506 127.449 132.492C126.695 133.536 125.999 134.493 125.361 135.363C124.665 136.291 124.056 137.074 123.534 137.712C122.954 138.408 122.461 138.93 122.055 139.278C121.707 139.568 121.33 139.8 120.924 139.974C120.46 140.206 119.996 140.264 119.532 140.148C118.546 139.974 118.053 139.365 118.053 138.321C118.053 137.335 118.401 136.204 119.097 134.928C119.735 133.652 120.489 132.347 121.359 131.013C122.171 129.795 122.983 128.606 123.795 127.446C124.549 126.286 125.39 125.039 126.318 123.705C127.246 122.429 128.29 120.979 129.45 119.355C130.61 117.789 131.973 115.962 133.539 113.874C134.583 112.424 135.917 110.626 137.541 108.48C139.165 106.334 140.876 104.13 142.674 101.868C144.414 99.548 146.096 97.344 147.72 95.256C149.402 93.11 150.794 91.341 151.896 89.949ZM190.365 96.3C190.075 97.17 188.683 98.562 186.189 100.476C184.217 102.042 182.448 103.289 180.882 104.217C179.374 105.087 177.895 105.522 176.445 105.522C174.705 105.522 173.835 104.913 173.835 103.695C173.835 102.303 175.111 100.041 177.663 96.909C180.273 93.777 181.578 92.182 181.578 92.124C181.578 91.718 181.375 91.515 180.969 91.515C179.983 91.515 178.127 92.53 175.401 94.56C172.733 96.532 171.341 97.518 171.225 97.518C171.167 97.518 171.08 97.46 170.964 97.344C170.964 97.112 170.993 96.967 171.051 96.909C176.387 92.327 180.273 90.036 182.709 90.036C184.507 90.036 185.406 90.674 185.406 91.95C185.406 92.936 184.275 94.821 182.013 97.605C179.751 100.389 178.62 102.187 178.62 102.999L178.707 103.347C178.939 103.463 179.171 103.521 179.403 103.521C180.447 103.521 182.245 102.535 184.797 100.563C186.479 99.113 188.161 97.692 189.843 96.3H190.104H190.365ZM196.375 92.559C196.085 92.675 195.534 93.023 194.722 93.603C193.968 94.125 193.272 94.647 192.634 95.169C191.996 95.691 191.416 96.155 190.894 96.561C190.43 96.967 189.966 97.373 189.502 97.779C188.806 98.359 188.371 98.591 188.197 98.475C188.081 98.359 188.11 98.214 188.284 98.04C188.4 97.866 188.69 97.547 189.154 97.083C189.386 96.851 189.734 96.532 190.198 96.126C190.72 95.72 191.271 95.285 191.851 94.821C192.431 94.357 193.011 93.893 193.591 93.429C194.229 92.965 194.809 92.559 195.331 92.211C196.491 91.399 197.419 90.877 198.115 90.645C198.811 90.413 199.565 90.297 200.377 90.297C201.305 90.297 201.827 90.384 201.943 90.558C202.059 90.732 201.856 91.109 201.334 91.689C200.754 92.327 200.058 93.11 199.246 94.038C198.492 94.966 197.68 95.981 196.81 97.083C196.114 98.011 195.447 98.91 194.809 99.78C194.229 100.65 193.823 101.317 193.591 101.781C193.243 102.535 193.214 103.057 193.504 103.347C193.852 103.695 194.519 103.637 195.505 103.173C196.491 102.651 197.477 102.042 198.463 101.346C199.507 100.592 200.696 99.693 202.03 98.649C204.118 97.025 205.858 95.633 207.25 94.473C208.642 93.313 210.034 92.182 211.426 91.08C211.774 90.79 212.122 90.558 212.47 90.384C212.818 90.21 213.311 90.123 213.949 90.123C214.703 90.123 215.225 90.21 215.515 90.384C215.863 90.5 215.776 90.877 215.254 91.515C214.442 92.501 213.688 93.4 212.992 94.212C212.296 94.966 211.513 95.923 210.643 97.083C209.135 98.939 208.062 100.418 207.424 101.52C206.844 102.506 206.757 103.144 207.163 103.434C207.569 103.724 208.236 103.637 209.164 103.173C209.628 102.941 210.208 102.593 210.904 102.129C211.658 101.665 212.383 101.143 213.079 100.563C213.949 99.867 214.732 99.229 215.428 98.649C216.182 98.011 216.791 97.46 217.255 96.996C217.893 96.358 218.299 96.155 218.473 96.387C218.589 96.503 218.531 96.706 218.299 96.996C218.067 97.228 217.893 97.402 217.777 97.518C217.255 98.04 216.501 98.736 215.515 99.606C214.529 100.418 213.514 101.23 212.47 102.042C212.064 102.332 211.571 102.68 210.991 103.086C210.469 103.492 209.86 103.869 209.164 104.217C208.526 104.565 207.83 104.855 207.076 105.087C206.38 105.377 205.684 105.522 204.988 105.522C203.19 105.522 202.291 104.826 202.291 103.434C202.291 102.796 202.407 102.187 202.639 101.607C202.929 101.027 203.277 100.447 203.683 99.867C204.147 99.171 204.756 98.446 205.51 97.692C206.264 96.88 207.018 96.097 207.772 95.343L207.685 95.256C206.815 95.952 205.713 96.822 204.379 97.866C203.103 98.91 201.885 99.867 200.725 100.737C198.927 102.071 197.245 103.202 195.679 104.13C194.171 105.058 192.75 105.522 191.416 105.522C190.488 105.522 189.763 105.319 189.241 104.913C188.719 104.507 188.487 103.898 188.545 103.086C188.603 102.448 188.806 101.839 189.154 101.259C189.444 100.621 189.792 100.041 190.198 99.519C191.068 98.359 191.967 97.228 192.895 96.126C193.881 95.024 195.041 93.835 196.375 92.559ZM242.338 81.858C242.222 82.844 241.207 83.888 239.293 84.99C237.379 86.034 235.871 86.556 234.769 86.556C234.189 86.556 233.551 86.382 232.855 86.034C232.217 85.628 231.898 85.164 231.898 84.642V82.467C232.188 81.829 232.594 81.51 233.116 81.51C234.044 81.51 234.508 81.887 234.508 82.641C234.508 83.453 233.986 84.149 232.942 84.729C233.232 85.425 233.87 85.773 234.856 85.773C235.958 85.773 237.437 85.106 239.293 83.772C241.207 82.438 242.164 81.771 242.164 81.771C242.222 81.771 242.28 81.8 242.338 81.858ZM246.166 96.387C246.05 97.257 244.078 99.142 240.25 102.042C237.176 104.362 234.682 105.522 232.768 105.522C230.97 105.522 230.071 104.826 230.071 103.434C230.071 101.694 231.666 99.229 234.856 96.039L234.682 95.865C226.91 102.303 221.748 105.522 219.196 105.522C217.282 105.522 216.325 104.826 216.325 103.434C216.325 101.172 218.935 97.547 224.155 92.559V92.472C223.227 93.11 221.835 94.154 219.979 95.604C219.283 96.242 218.239 97.141 216.847 98.301C216.499 98.533 216.209 98.649 215.977 98.649C215.919 98.591 215.89 98.504 215.89 98.388C215.89 97.634 217.601 96.097 221.023 93.777C224.445 91.457 226.968 90.297 228.592 90.297C229.23 90.297 229.607 90.384 229.723 90.558C229.665 90.674 228.07 92.733 224.938 96.735C222.328 100.041 221.023 102.1 221.023 102.912C221.081 102.97 221.168 103.086 221.284 103.26C221.4 103.434 221.574 103.521 221.806 103.521C223.256 103.521 229.056 99.374 239.206 91.08C239.96 90.442 240.801 90.123 241.729 90.123C242.947 90.123 243.556 90.268 243.556 90.558C243.556 90.906 242.077 92.791 239.119 96.213C236.219 99.635 234.769 101.81 234.769 102.738C234.769 102.97 234.827 103.173 234.943 103.347C235.059 103.463 235.233 103.521 235.465 103.521C237.437 103.521 240.627 101.317 245.035 96.909L246.166 96.387ZM143.444 156.559C143.154 156.675 142.603 157.023 141.791 157.603C141.037 158.125 140.341 158.647 139.703 159.169C139.065 159.691 138.485 160.155 137.963 160.561C137.499 160.967 137.035 161.373 136.571 161.779C135.875 162.359 135.44 162.591 135.266 162.475C135.15 162.359 135.179 162.214 135.353 162.04C135.469 161.866 135.759 161.547 136.223 161.083C136.455 160.851 136.803 160.532 137.267 160.126C137.789 159.72 138.34 159.285 138.92 158.821C139.5 158.357 140.08 157.893 140.66 157.429C141.298 156.965 141.878 156.559 142.4 156.211C143.56 155.399 144.488 154.877 145.184 154.645C145.88 154.413 146.634 154.297 147.446 154.297C148.374 154.297 148.896 154.384 149.012 154.558C149.128 154.732 148.925 155.109 148.403 155.689C147.823 156.327 147.127 157.11 146.315 158.038C145.561 158.966 144.749 159.981 143.879 161.083C143.183 162.011 142.516 162.91 141.878 163.78C141.298 164.65 140.892 165.317 140.66 165.781C140.312 166.535 140.283 167.057 140.573 167.347C140.921 167.695 141.588 167.637 142.574 167.173C143.56 166.651 144.546 166.042 145.532 165.346C146.576 164.592 147.765 163.693 149.099 162.649C151.187 161.025 152.927 159.633 154.319 158.473C155.711 157.313 157.103 156.182 158.495 155.08C158.843 154.79 159.191 154.558 159.539 154.384C159.887 154.21 160.38 154.123 161.018 154.123C161.772 154.123 162.294 154.21 162.584 154.384C162.932 154.5 162.845 154.877 162.323 155.515C161.511 156.501 160.757 157.4 160.061 158.212C159.365 158.966 158.582 159.923 157.712 161.083C156.204 162.939 155.131 164.418 154.493 165.52C153.913 166.506 153.826 167.144 154.232 167.434C154.638 167.724 155.305 167.637 156.233 167.173C156.697 166.941 157.277 166.593 157.973 166.129C158.727 165.665 159.452 165.143 160.148 164.563C161.018 163.867 161.801 163.229 162.497 162.649C163.251 162.011 163.86 161.46 164.324 160.996C164.962 160.358 165.368 160.155 165.542 160.387C165.658 160.503 165.6 160.706 165.368 160.996C165.136 161.228 164.962 161.402 164.846 161.518C164.324 162.04 163.57 162.736 162.584 163.606C161.598 164.418 160.583 165.23 159.539 166.042C159.133 166.332 158.64 166.68 158.06 167.086C157.538 167.492 156.929 167.869 156.233 168.217C155.595 168.565 154.899 168.855 154.145 169.087C153.449 169.377 152.753 169.522 152.057 169.522C150.259 169.522 149.36 168.826 149.36 167.434C149.36 166.796 149.476 166.187 149.708 165.607C149.998 165.027 150.346 164.447 150.752 163.867C151.216 163.171 151.825 162.446 152.579 161.692C153.333 160.88 154.087 160.097 154.841 159.343L154.754 159.256C153.884 159.952 152.782 160.822 151.448 161.866C150.172 162.91 148.954 163.867 147.794 164.737C145.996 166.071 144.314 167.202 142.748 168.13C141.24 169.058 139.819 169.522 138.485 169.522C137.557 169.522 136.832 169.319 136.31 168.913C135.788 168.507 135.556 167.898 135.614 167.086C135.672 166.448 135.875 165.839 136.223 165.259C136.513 164.621 136.861 164.041 137.267 163.519C138.137 162.359 139.036 161.228 139.964 160.126C140.95 159.024 142.11 157.835 143.444 156.559ZM102.578 204.203C100.838 204.145 98.8948 203.942 96.7488 203.594C94.6608 203.188 92.4278 202.782 90.0498 202.376C87.7298 201.97 85.2938 201.593 82.7418 201.245C80.2478 200.839 77.7828 200.549 75.3468 200.375C73.3168 200.259 71.3448 200.346 69.4308 200.636C67.5748 200.926 65.9218 201.419 64.4718 202.115C63.0218 202.753 61.8328 203.594 60.9048 204.638C59.9768 205.682 59.4258 206.9 59.2518 208.292C59.1358 209.278 59.2808 210.177 59.6868 210.989C60.0928 211.801 60.7018 212.526 61.5138 213.164C62.3258 213.744 63.2828 214.237 64.3848 214.643C65.4868 214.991 66.6758 215.194 67.9518 215.252C70.7358 215.31 72.9978 214.846 74.7378 213.86C76.5358 212.816 77.4928 211.453 77.6088 209.771C77.7828 208.785 77.5798 207.915 76.9998 207.161C76.6518 206.871 76.5358 206.697 76.6518 206.639C76.7678 206.523 76.9128 206.523 77.0868 206.639C77.3188 206.697 77.4928 206.784 77.6088 206.9C77.9568 207.074 78.3628 207.422 78.8268 207.944C79.2908 208.408 79.5228 209.075 79.5228 209.945C79.5228 210.873 79.2038 211.714 78.5658 212.468C77.9278 213.222 77.0578 213.86 75.9558 214.382C74.9118 214.904 73.6938 215.31 72.3018 215.6C70.9098 215.89 69.4598 216.035 67.9518 216.035C66.5018 216.035 65.1678 215.832 63.9498 215.426C62.7318 215.02 61.6588 214.469 60.7308 213.773C59.8608 213.019 59.1938 212.178 58.7298 211.25C58.2658 210.264 58.0918 209.191 58.2078 208.031C58.3818 206.465 58.9618 205.073 59.9478 203.855C60.9918 202.579 62.3258 201.506 63.9498 200.636C65.6318 199.766 67.5458 199.128 69.6918 198.722C71.8378 198.316 74.0998 198.142 76.4778 198.2C78.7978 198.258 81.2918 198.49 83.9598 198.896C86.6858 199.244 89.2668 199.65 91.7028 200.114C93.9068 200.462 96.2848 200.81 98.8368 201.158C101.447 201.506 104.231 201.767 107.189 201.941C111.249 202.057 114.613 201.68 117.281 200.81C119.949 199.882 121.457 198.374 121.805 196.286C122.211 194.372 121.428 192.69 119.456 191.24C117.542 189.79 114.758 189.065 111.104 189.065H111.017C108.407 189.065 106.058 189.529 103.97 190.457C101.94 191.327 100.403 192.342 99.3588 193.502C99.0688 193.908 98.7498 194.372 98.4018 194.894C98.1118 195.358 97.9378 195.735 97.8798 196.025C97.7058 196.779 97.5608 197.156 97.4448 197.156C97.2708 197.156 97.2128 196.779 97.2708 196.025C97.3288 195.677 97.4738 195.213 97.7058 194.633C97.9378 193.995 98.2858 193.444 98.7498 192.98C99.9098 191.53 101.505 190.341 103.535 189.413C105.623 188.427 108.146 187.934 111.104 187.934C113.076 187.934 114.845 188.166 116.411 188.63C118.035 189.036 119.369 189.645 120.413 190.457C121.515 191.269 122.298 192.255 122.762 193.415C123.226 194.575 123.313 195.909 123.023 197.417C122.791 198.635 122.182 199.708 121.196 200.636C120.268 201.564 119.05 202.347 117.542 202.985C116.092 203.565 114.381 204 112.409 204.29C110.495 204.522 108.436 204.609 106.232 204.551C105.942 204.493 105.42 204.435 104.666 204.377C103.97 204.261 103.535 204.203 103.361 204.203C103.245 204.203 103.158 204.203 103.1 204.203C103.042 204.203 102.868 204.261 102.578 204.377V204.203ZM84.3948 213.338C79.6968 220.124 74.7378 225.431 69.5178 229.259C64.3558 233.087 58.5848 235.001 52.2048 235.001C50.9288 235.001 49.6528 234.885 48.3768 234.653C47.1008 234.421 45.9698 234.015 44.9838 233.435C43.9978 232.913 43.1858 232.217 42.5478 231.347C41.9098 230.477 41.5908 229.433 41.5908 228.215C41.5908 227.055 41.9968 225.895 42.8088 224.735C43.6788 223.575 44.8968 222.995 46.4628 222.995C47.1588 222.995 47.7388 223.169 48.2028 223.517C48.7248 223.865 49.0728 224.329 49.2468 224.909C49.4788 225.431 49.4788 226.04 49.2468 226.736C49.0148 227.374 48.5218 228.012 47.7678 228.65C47.4198 228.998 47.0428 229.375 46.6368 229.781C46.2888 230.129 46.1148 230.622 46.1148 231.26C46.1148 232.072 46.6948 232.739 47.8548 233.261C49.0728 233.841 50.4358 234.131 51.9438 234.131C54.5538 234.131 57.1058 233.58 59.5998 232.478C62.1518 231.318 64.6168 229.781 66.9948 227.867C69.3728 225.953 71.6928 223.778 73.9548 221.342C76.2168 218.848 78.3628 216.267 80.3928 213.599C81.8428 211.917 83.4668 210.322 85.2648 208.814C87.1208 207.248 88.8028 206.117 90.3108 205.421C90.6008 205.305 90.9778 205.015 91.4418 204.551C91.9638 204.087 92.3698 203.884 92.6598 203.942C93.0078 204.058 93.1238 204.29 93.0078 204.638C92.9498 204.986 92.7758 205.218 92.4858 205.334C91.0938 205.972 89.6728 207.045 88.2228 208.553C86.8308 210.061 85.5548 211.656 84.3948 213.338ZM110.147 208.031C109.277 209.133 108.03 210.728 106.406 212.816C104.782 214.904 103.129 217.108 101.447 219.428C99.8228 221.748 98.3728 223.981 97.0968 226.127C95.8788 228.215 95.2408 229.839 95.1828 230.999C95.1248 231.521 95.2698 231.898 95.6178 232.13C96.0238 232.362 96.4008 232.478 96.7488 232.478C97.5028 232.478 98.4018 232.275 99.4458 231.869C100.49 231.463 101.708 230.767 103.1 229.781C103.68 229.317 104.463 228.679 105.449 227.867C106.493 227.055 107.334 226.359 107.972 225.779C108.204 225.605 108.436 225.46 108.668 225.344C108.958 225.17 109.161 225.141 109.277 225.257C109.393 225.373 109.306 225.576 109.016 225.866C108.784 226.098 108.61 226.272 108.494 226.388C107.914 226.91 107.102 227.606 106.058 228.476C105.014 229.346 104.144 230.013 103.448 230.477C103.158 230.709 102.723 231.028 102.143 231.434C101.563 231.782 100.896 232.159 100.142 232.565C99.3878 232.913 98.5758 233.232 97.7058 233.522C96.8938 233.812 96.0528 233.957 95.1828 233.957C93.9068 233.957 92.8918 233.638 92.1378 233C91.4418 232.362 91.1228 231.405 91.1808 230.129C91.2388 229.027 91.6158 227.78 92.3118 226.388C93.0658 224.938 93.9068 223.546 94.8348 222.212C95.7628 220.82 96.6908 219.544 97.6188 218.384C98.6048 217.166 99.3878 216.238 99.9678 215.6C100.838 214.672 101.592 213.889 102.23 213.251C102.868 212.555 103.477 211.917 104.057 211.337C104.695 210.699 105.362 210.061 106.058 209.423C106.754 208.727 107.653 207.886 108.755 206.9C109.277 206.378 109.741 206.03 110.147 205.856C110.611 205.624 110.93 205.566 111.104 205.682C111.336 205.74 111.365 205.972 111.191 206.378C111.075 206.726 110.727 207.277 110.147 208.031ZM73.6068 233.522C72.6208 233.986 72.0988 234.131 72.0408 233.957C71.9828 233.841 72.1858 233.696 72.6498 233.522C73.7518 233.116 75.1438 232.362 76.8258 231.26C78.5658 230.158 80.1318 228.94 81.5238 227.606C82.3938 226.678 83.1188 225.808 83.6988 224.996C84.3368 224.126 84.9458 223.256 85.5258 222.386C86.1638 221.516 86.8018 220.617 87.4398 219.689C88.1358 218.703 88.9188 217.63 89.7888 216.47C92.6308 212.584 95.8498 209.684 99.4458 207.77C100.432 207.248 100.954 207.074 101.012 207.248C101.07 207.364 100.867 207.538 100.403 207.77C99.7648 208.118 99.0108 208.727 98.1408 209.597C97.3288 210.467 96.5168 211.54 95.7048 212.816C94.9508 213.686 94.3128 214.556 93.7908 215.426C93.3268 216.238 92.8628 217.05 92.3988 217.862C91.9348 218.674 91.4418 219.515 90.9198 220.385C90.3978 221.197 89.7598 222.067 89.0058 222.995C87.8458 224.329 86.5698 225.547 85.1778 226.649C83.8438 227.751 82.4808 228.737 81.0888 229.607C79.7548 230.477 78.4208 231.26 77.0868 231.956C75.8108 232.594 74.6508 233.116 73.6068 233.522ZM125.75 221.429C126.794 220.327 127.693 219.515 128.447 218.993C129.259 218.413 130.013 218.123 130.709 218.123C131.637 218.065 132.159 218.152 132.275 218.384C132.449 218.616 132.304 218.993 131.84 219.515C131.26 220.153 130.535 220.994 129.665 222.038C128.795 223.024 127.896 224.097 126.968 225.257C126.388 225.953 125.837 226.678 125.315 227.432C124.793 228.128 124.329 228.824 123.923 229.52C123.343 230.564 123.256 231.231 123.662 231.521C123.894 231.695 124.184 231.724 124.532 231.608C124.938 231.492 125.315 231.347 125.663 231.173C126.127 230.941 126.707 230.593 127.403 230.129C128.157 229.607 128.882 229.056 129.578 228.476C130.506 227.722 131.318 227.055 132.014 226.475C132.71 225.895 133.29 225.373 133.754 224.909C134.044 224.677 134.276 224.503 134.45 224.387C134.682 224.213 134.856 224.184 134.972 224.3C135.146 224.474 134.769 224.996 133.841 225.866C133.261 226.388 132.507 227.055 131.579 227.867C130.651 228.679 129.781 229.404 128.969 230.042C128.099 230.738 126.997 231.492 125.663 232.304C124.329 233.116 122.937 233.522 121.487 233.522C120.675 233.522 120.066 233.348 119.66 233C119.254 232.652 119.022 232.217 118.964 231.695C118.906 231.231 118.993 230.709 119.225 230.129C119.457 229.549 119.776 229.027 120.182 228.563L120.095 228.476C119.515 228.998 118.848 229.549 118.094 230.129C117.34 230.651 116.528 231.173 115.658 231.695C114.846 232.159 113.976 232.565 113.048 232.913C112.178 233.261 111.337 233.464 110.525 233.522C109.539 233.58 108.669 233.377 107.915 232.913C107.103 232.391 106.784 231.434 106.958 230.042C107.074 229.404 107.306 228.737 107.654 228.041C108.002 227.287 108.582 226.446 109.394 225.518L109.307 225.431C109.191 225.547 109.046 225.692 108.872 225.866C108.698 226.04 108.466 226.243 108.176 226.475C107.77 226.765 107.509 226.852 107.393 226.736C107.219 226.504 107.625 225.953 108.611 225.083C108.727 224.967 109.075 224.677 109.655 224.213C110.235 223.691 110.757 223.285 111.221 222.995C111.685 222.705 112.265 222.357 112.961 221.951C113.657 221.487 114.411 221.023 115.223 220.559C116.905 219.689 118.471 219.022 119.921 218.558C121.429 218.094 122.763 217.949 123.923 218.123C124.793 218.239 125.373 218.645 125.663 219.341C126.011 219.979 126.04 220.675 125.75 221.429ZM123.575 218.993C122.705 218.993 121.545 219.515 120.095 220.559C118.645 221.603 117.137 222.908 115.571 224.474C113.773 226.214 112.468 227.664 111.656 228.824C110.902 229.926 110.583 230.767 110.699 231.347C110.757 231.927 111.134 232.217 111.83 232.217C112.642 232.217 113.773 231.811 115.223 230.999C116.673 230.187 117.978 229.23 119.138 228.128C119.834 227.548 120.53 226.881 121.226 226.127C121.922 225.373 122.56 224.648 123.14 223.952C123.72 223.256 124.184 222.618 124.532 222.038C124.938 221.4 125.141 220.907 125.141 220.559C125.199 219.515 124.677 218.993 123.575 218.993ZM138.285 220.994C139.445 220.066 140.489 219.37 141.417 218.906C142.345 218.384 143.273 218.123 144.201 218.123C145.013 218.123 145.564 218.326 145.854 218.732C146.202 219.138 146.376 219.573 146.376 220.037C146.376 220.559 146.202 221.11 145.854 221.69C145.564 222.27 145.129 222.966 144.549 223.778C143.911 224.648 143.186 225.605 142.374 226.649C141.562 227.693 140.924 228.563 140.46 229.259L140.547 229.346C141.591 228.476 142.809 227.461 144.201 226.301C145.593 225.141 147.043 223.981 148.551 222.821C150.059 221.661 151.683 220.588 153.423 219.602C155.163 218.616 156.671 218.123 157.947 218.123C159.049 218.123 159.803 218.355 160.209 218.819C160.673 219.283 160.847 219.892 160.731 220.646C160.615 221.342 160.209 222.125 159.513 222.995C158.817 223.865 158.092 224.735 157.338 225.605C156.584 226.475 155.975 227.2 155.511 227.78C155.047 228.36 154.612 228.911 154.206 229.433L154.293 229.52C155.279 228.65 156.497 227.606 157.947 226.388C159.455 225.17 160.963 223.981 162.471 222.821C163.979 221.661 165.603 220.588 167.343 219.602C169.083 218.616 170.62 218.123 171.954 218.123C172.94 218.123 173.665 218.355 174.129 218.819C174.593 219.225 174.767 219.776 174.651 220.472C174.535 221.284 174.1 222.154 173.346 223.082C172.592 224.01 171.867 224.909 171.171 225.779C170.475 226.591 169.895 227.345 169.431 228.041C168.967 228.679 168.59 229.201 168.3 229.607C167.662 230.593 167.546 231.231 167.952 231.521C168.184 231.695 168.503 231.724 168.909 231.608C169.315 231.492 169.692 231.347 170.04 231.173C170.562 230.883 171.142 230.564 171.78 230.216C172.418 229.81 173.23 229.23 174.216 228.476C174.97 227.896 175.724 227.287 176.478 226.649C177.29 225.953 177.928 225.373 178.392 224.909C178.972 224.387 179.349 224.213 179.523 224.387C179.639 224.561 179.407 224.938 178.827 225.518C178.421 225.924 177.667 226.62 176.565 227.606C175.521 228.534 174.535 229.346 173.607 230.042C173.143 230.39 172.592 230.767 171.954 231.173C171.374 231.579 170.736 231.956 170.04 232.304C169.344 232.652 168.619 232.942 167.865 233.174C167.169 233.406 166.473 233.522 165.777 233.522C163.921 233.522 163.051 232.768 163.167 231.26C163.225 230.274 163.66 229.259 164.472 228.215C165.284 227.113 166.067 226.098 166.821 225.17C167.459 224.358 168.068 223.604 168.648 222.908C169.286 222.212 169.895 221.545 170.475 220.907C170.649 220.675 170.765 220.443 170.823 220.211C170.881 219.979 170.794 219.805 170.562 219.689C170.33 219.573 170.011 219.573 169.605 219.689C169.199 219.805 168.764 219.979 168.3 220.211C167.488 220.617 166.502 221.197 165.342 221.951C164.182 222.647 162.906 223.546 161.514 224.648C160.528 225.402 159.658 226.098 158.904 226.736C158.15 227.374 157.396 228.012 156.642 228.65C155.888 229.23 155.105 229.839 154.293 230.477C153.539 231.115 152.698 231.811 151.77 232.565C151.074 233.087 150.32 233.348 149.508 233.348C148.812 233.348 148.377 233.261 148.203 233.087C148.029 232.913 148.087 232.536 148.377 231.956C148.841 231.028 149.508 229.926 150.378 228.65C151.306 227.316 152.176 226.156 152.988 225.17C153.742 224.242 154.467 223.43 155.163 222.734C155.859 221.98 156.352 221.371 156.642 220.907C156.816 220.675 156.903 220.443 156.903 220.211C156.961 219.979 156.845 219.805 156.555 219.689C156.149 219.573 155.424 219.747 154.38 220.211C153.568 220.617 152.553 221.197 151.335 221.951C150.175 222.705 148.928 223.604 147.594 224.648C146.608 225.402 145.738 226.098 144.984 226.736C144.23 227.374 143.476 228.012 142.722 228.65C141.968 229.23 141.185 229.839 140.373 230.477C139.619 231.115 138.778 231.811 137.85 232.565C137.154 233.087 136.4 233.348 135.588 233.348C134.95 233.348 134.515 233.261 134.283 233.087C134.051 232.971 134.109 232.594 134.457 231.956C134.747 231.376 135.298 230.506 136.11 229.346C136.922 228.128 137.647 227.055 138.285 226.127C138.923 225.199 139.532 224.387 140.112 223.691C140.75 222.937 141.301 222.241 141.765 221.603C142.345 220.849 142.548 220.356 142.374 220.124C142.142 219.834 141.707 219.863 141.069 220.211C140.547 220.501 139.967 220.849 139.329 221.255C138.749 221.661 138.198 222.096 137.676 222.56C137.096 223.024 136.487 223.546 135.849 224.126C135.211 224.706 134.573 225.286 133.935 225.866C133.123 226.562 132.63 226.823 132.456 226.649C132.34 226.475 132.775 225.924 133.761 224.996C134.283 224.532 134.95 223.923 135.762 223.169C136.632 222.357 137.473 221.632 138.285 220.994ZM194.811 224.474C194.811 224.88 193.941 225.779 192.201 227.171C190.983 228.041 189.069 229.375 186.459 231.173L185.763 231.347C183.095 232.797 181.094 233.522 179.76 233.522C177.788 233.522 176.802 232.826 176.802 231.434C176.802 230.796 177.266 229.607 178.194 227.867C179.064 226.127 179.992 224.793 180.978 223.865C181.094 223.691 181.239 223.488 181.413 223.256C178.281 225.518 176.657 226.649 176.541 226.649L176.454 226.388C176.454 226.098 179.006 224.213 184.11 220.733C184.342 220.501 184.69 220.211 185.154 219.863C186.662 218.703 187.909 218.123 188.895 218.123C189.765 218.123 190.287 218.21 190.461 218.384C188.779 220.472 187.126 222.56 185.502 224.648C182.892 227.954 181.587 230.013 181.587 230.825C181.587 230.883 181.674 231.028 181.848 231.26C182.022 231.434 182.254 231.521 182.544 231.521C183.298 231.521 184.429 230.825 185.937 229.433C186.343 227.635 187.3 226.533 188.808 226.127V224.3L188.895 224.213C188.953 224.155 189.011 224.126 189.069 224.126C189.997 224.126 190.461 224.735 190.461 225.953C190.461 226.823 189.823 227.896 188.547 229.172C189.127 228.65 190.055 227.867 191.331 226.823C193.361 225.141 194.492 224.3 194.724 224.3C194.782 224.358 194.811 224.416 194.811 224.474ZM221.934 224.387C221.934 224.735 219.962 226.446 216.018 229.52C212.538 232.246 209.638 233.609 207.318 233.609C205.404 233.609 204.447 232.855 204.447 231.347C204.447 230.129 204.911 228.795 205.839 227.345C204.099 228.679 202.33 229.984 200.532 231.26C198.27 232.768 196.269 233.522 194.529 233.522C192.499 233.522 191.484 232.652 191.484 230.912C191.484 228.418 192.789 227.171 195.399 227.171C196.617 227.171 197.226 227.519 197.226 228.215C197.226 228.447 197.139 228.824 196.965 229.346C196.791 229.81 196.704 230.158 196.704 230.39C196.704 230.97 196.965 231.26 197.487 231.26C199.053 231.26 201.634 229.694 205.23 226.562C204.766 226.678 204.36 226.736 204.012 226.736C202.968 226.736 202.069 226.301 201.315 225.431C200.619 224.503 200.271 223.517 200.271 222.473C200.271 220.849 201.257 219.428 203.229 218.21C204.969 217.108 206.68 216.557 208.362 216.557C211.146 216.557 212.799 217.369 213.321 218.993C214.365 218.181 215.786 217.775 217.584 217.775C217.932 217.775 218.193 217.833 218.367 217.949L218.454 218.036C218.454 218.326 216.975 220.24 214.017 223.778C211.117 227.316 209.667 229.607 209.667 230.651C209.667 231.173 209.928 231.434 210.45 231.434C211.842 231.434 213.785 230.361 216.279 228.215C219.063 225.837 220.919 224.503 221.847 224.213C221.905 224.271 221.934 224.329 221.934 224.387ZM210.624 218.993C210.624 218.181 210.189 217.775 209.319 217.775C207.985 217.775 206.506 218.5 204.882 219.95C203.258 221.4 202.446 222.821 202.446 224.213C202.446 225.373 202.881 225.953 203.751 225.953C204.969 225.953 206.419 225.083 208.101 223.343C209.783 221.603 210.624 220.153 210.624 218.993ZM248.613 224.996C247.453 227.49 245.481 229.607 242.697 231.347C240.377 232.855 238.463 233.609 236.955 233.609C234.983 233.609 233.997 232.768 233.997 231.086C233.997 229.81 234.577 228.389 235.737 226.823C233.939 228.099 232.025 228.737 229.995 228.737C228.487 228.737 227.414 228.244 226.776 227.258C225.964 228.534 224.63 230.332 222.774 232.652C221.73 233.116 220.744 233.348 219.816 233.348C218.54 233.348 217.902 233.116 217.902 232.652C217.902 231.84 219.207 229.839 221.817 226.649C224.021 223.865 225.761 221.864 227.037 220.646V220.559C223.209 223.691 221.063 225.257 220.599 225.257C220.483 225.257 220.425 225.199 220.425 225.083C220.947 223.923 222.513 222.56 225.123 220.994C227.733 219.37 229.676 218.558 230.952 218.558C232.054 218.558 232.605 218.703 232.605 218.993C232.605 219.225 231.242 221.11 228.516 224.648C228.98 224.938 229.212 225.315 229.212 225.779C229.212 226.069 229.067 226.388 228.777 226.736C228.545 227.026 228.429 227.229 228.429 227.345C228.429 227.867 228.806 228.128 229.56 228.128C231.822 228.128 233.939 227.316 235.911 225.692C236.027 225.634 237.535 224.097 240.435 221.081C242.059 219.399 243.509 218.558 244.785 218.558C246.003 218.558 246.612 218.732 246.612 219.08C246.612 219.196 245.278 220.907 242.61 224.213C240 227.461 238.695 229.52 238.695 230.39C238.695 230.796 238.782 231.115 238.956 231.347C239.13 231.521 239.333 231.608 239.565 231.608C240.609 231.608 243.451 229.375 248.091 224.909H248.352C248.468 224.909 248.555 224.938 248.613 224.996ZM264.746 221.429C265.79 220.327 266.689 219.515 267.443 218.993C268.255 218.413 269.009 218.123 269.705 218.123C270.633 218.065 271.155 218.152 271.271 218.384C271.445 218.616 271.3 218.993 270.836 219.515C270.256 220.153 269.531 220.994 268.661 222.038C267.791 223.024 266.892 224.097 265.964 225.257C265.384 225.953 264.833 226.678 264.311 227.432C263.789 228.128 263.325 228.824 262.919 229.52C262.339 230.564 262.252 231.231 262.658 231.521C262.89 231.695 263.18 231.724 263.528 231.608C263.934 231.492 264.311 231.347 264.659 231.173C265.123 230.941 265.703 230.593 266.399 230.129C267.153 229.607 267.878 229.056 268.574 228.476C269.502 227.722 270.314 227.055 271.01 226.475C271.706 225.895 272.286 225.373 272.75 224.909C273.04 224.677 273.272 224.503 273.446 224.387C273.678 224.213 273.852 224.184 273.968 224.3C274.142 224.474 273.765 224.996 272.837 225.866C272.257 226.388 271.503 227.055 270.575 227.867C269.647 228.679 268.777 229.404 267.965 230.042C267.095 230.738 265.993 231.492 264.659 232.304C263.325 233.116 261.933 233.522 260.483 233.522C259.671 233.522 259.062 233.348 258.656 233C258.25 232.652 258.018 232.217 257.96 231.695C257.902 231.231 257.989 230.709 258.221 230.129C258.453 229.549 258.772 229.027 259.178 228.563L259.091 228.476C258.511 228.998 257.844 229.549 257.09 230.129C256.336 230.651 255.524 231.173 254.654 231.695C253.842 232.159 252.972 232.565 252.044 232.913C251.174 233.261 250.333 233.464 249.521 233.522C248.535 233.58 247.665 233.377 246.911 232.913C246.099 232.391 245.78 231.434 245.954 230.042C246.07 229.404 246.302 228.737 246.65 228.041C246.998 227.287 247.578 226.446 248.39 225.518L248.303 225.431C248.187 225.547 248.042 225.692 247.868 225.866C247.694 226.04 247.462 226.243 247.172 226.475C246.766 226.765 246.505 226.852 246.389 226.736C246.215 226.504 246.621 225.953 247.607 225.083C247.723 224.967 248.071 224.677 248.651 224.213C249.231 223.691 249.753 223.285 250.217 222.995C250.681 222.705 251.261 222.357 251.957 221.951C252.653 221.487 253.407 221.023 254.219 220.559C255.901 219.689 257.467 219.022 258.917 218.558C260.425 218.094 261.759 217.949 262.919 218.123C263.789 218.239 264.369 218.645 264.659 219.341C265.007 219.979 265.036 220.675 264.746 221.429ZM262.571 218.993C261.701 218.993 260.541 219.515 259.091 220.559C257.641 221.603 256.133 222.908 254.567 224.474C252.769 226.214 251.464 227.664 250.652 228.824C249.898 229.926 249.579 230.767 249.695 231.347C249.753 231.927 250.13 232.217 250.826 232.217C251.638 232.217 252.769 231.811 254.219 230.999C255.669 230.187 256.974 229.23 258.134 228.128C258.83 227.548 259.526 226.881 260.222 226.127C260.918 225.373 261.556 224.648 262.136 223.952C262.716 223.256 263.18 222.618 263.528 222.038C263.934 221.4 264.137 220.907 264.137 220.559C264.195 219.515 263.673 218.993 262.571 218.993Z" fill="#FCFCFC"/>
</svg>
